<svg width="500" height="500" viewBox="0 0 500 500" fill="none" xmlns="http://www.w3.org/2000/svg">
<rect width="500" height="500" rx="60" fill="white"/>
<path d="M219.688 98C118.632 98 58 179.064 58 219.6C58 260.136 78.208 290.536 118.632 290.536C159.056 290.536 179.272 300.664 179.272 331.064C179.272 371.592 209.584 401.992 250.008 401.992C381.384 401.992 442.008 331.064 442.008 260.136C442 138.536 340.928 98 219.688 98ZM194.424 138.536C197.747 138.538 201.036 139.195 204.104 140.47C207.173 141.744 209.96 143.611 212.306 145.963C214.653 148.315 216.512 151.107 217.779 154.179C219.046 157.25 219.694 160.541 219.688 163.864C219.688 177.864 208.376 189.2 194.424 189.2C180.472 189.2 169.16 177.856 169.16 163.864C169.154 160.541 169.802 157.25 171.069 154.179C172.336 151.107 174.195 148.315 176.542 145.963C178.888 143.611 181.675 141.744 184.744 140.47C187.812 139.195 191.101 138.538 194.424 138.536ZM275.256 138.536C278.578 138.538 281.868 139.195 284.936 140.47C288.005 141.744 290.792 143.611 293.138 145.963C295.485 148.315 297.344 151.107 298.611 154.179C299.878 157.25 300.526 160.541 300.52 163.864C300.527 167.187 299.879 170.479 298.613 173.552C297.347 176.624 295.488 179.417 293.141 181.77C290.795 184.123 288.007 185.991 284.938 187.266C281.869 188.541 278.579 189.198 275.256 189.2C271.933 189.197 268.644 188.539 265.576 187.263C262.508 185.988 259.722 184.12 257.376 181.767C255.03 179.414 253.172 176.622 251.906 173.55C250.64 170.478 249.993 167.186 250 163.864C249.994 160.542 250.642 157.252 251.908 154.181C253.174 151.109 255.033 148.318 257.379 145.966C259.724 143.614 262.511 141.747 265.578 140.472C268.645 139.197 271.934 138.539 275.256 138.536ZM356.104 179.064C359.428 179.065 362.719 179.722 365.789 180.996C368.859 182.27 371.647 184.138 373.994 186.491C376.342 188.844 378.202 191.637 379.469 194.71C380.735 197.783 381.383 201.076 381.376 204.4C381.382 207.723 380.733 211.015 379.466 214.087C378.199 217.159 376.339 219.951 373.991 222.304C371.644 224.656 368.856 226.523 365.787 227.797C362.718 229.071 359.427 229.727 356.104 229.728C352.782 229.725 349.493 229.067 346.426 227.792C343.359 226.517 340.572 224.65 338.227 222.298C335.881 219.946 334.022 217.155 332.756 214.083C331.49 211.012 330.842 207.722 330.848 204.4C330.841 201.077 331.488 197.786 332.754 194.714C334.02 191.642 335.878 188.85 338.224 186.497C340.57 184.144 343.356 182.276 346.424 181.001C349.492 179.725 352.781 179.067 356.104 179.064ZM123.688 199.336C127.009 199.339 130.297 199.997 133.364 201.271C136.431 202.545 139.217 204.412 141.562 206.763C143.908 209.114 145.767 211.905 147.033 214.975C148.3 218.045 148.949 221.335 148.944 224.656C148.944 238.656 137.632 249.992 123.688 249.992C109.744 249.992 98.424 238.648 98.424 224.656C98.4187 221.334 99.0682 218.044 100.335 214.973C101.602 211.902 103.462 209.112 105.809 206.76C108.155 204.409 110.942 202.543 114.009 201.269C117.077 199.995 120.366 199.338 123.688 199.336ZM250 300.664C266.744 300.664 280.312 314.264 280.312 331.072C280.312 347.856 266.744 361.464 250 361.464C233.256 361.464 219.688 347.856 219.688 331.072C219.681 327.085 220.459 323.135 221.978 319.449C223.498 315.762 225.729 312.412 228.544 309.588C231.359 306.764 234.703 304.522 238.384 302.991C242.066 301.46 246.013 300.669 250 300.664Z" fill="#19976B"/>
</svg>
